# Blender v2.80 (sub 75) OBJ File: ''
# www.blender.org
mtllib TempestRing.mtl
o Cylinder
v -0.000000 0.000000 -1.209195
v 0.235902 0.000000 -1.185960
v 0.462739 0.000000 -1.117150
v 0.671793 0.000000 -1.005409
v 0.855030 0.000000 -0.855030
v 1.005409 0.000000 -0.671793
v 1.117150 0.000000 -0.462739
v 1.185960 0.000000 -0.235902
v 1.209195 0.000000 -0.000000
v 1.185960 0.000000 0.235902
v 1.117150 0.000000 0.462739
v 1.005409 0.000000 0.671793
v 0.855030 0.000000 0.855030
v 0.671793 0.000000 1.005409
v 0.462739 0.000000 1.117150
v 0.235902 0.000000 1.185960
v -0.000000 0.000000 1.209195
v -0.235903 0.000000 1.185960
v -0.462739 0.000000 1.117150
v -0.671793 0.000000 1.005408
v -0.855030 0.000000 0.855029
v -1.005409 0.000000 0.671792
v -1.117151 0.000000 0.462738
v -1.185961 0.000000 0.235901
v -1.209195 0.000000 -0.000001
v -1.185960 0.000000 -0.235903
v -1.117150 0.000000 -0.462740
v -1.005408 0.000000 -0.671794
v -0.855029 0.000000 -0.855031
v -0.671791 0.000000 -1.005409
v -0.462737 0.000000 -1.117151
v -0.235900 0.000000 -1.185961
v -0.000000 0.500000 -1.313792
v 0.256308 0.500000 -1.288548
v 0.502766 0.500000 -1.213786
v 0.729904 0.500000 -1.092378
v 0.928991 0.500000 -0.928991
v 1.092378 0.500000 -0.729904
v 1.213786 0.500000 -0.502766
v 1.288548 0.500000 -0.256308
v 1.313792 0.500000 -0.000000
v 1.288548 0.500000 0.256308
v 1.213786 0.500000 0.502766
v 1.092378 0.500000 0.729904
v 0.928991 0.500000 0.928991
v 0.729904 0.500000 1.092378
v 0.502766 0.500000 1.213786
v 0.256308 0.500000 1.288548
v -0.000000 0.500000 1.313792
v -0.256309 0.500000 1.288548
v -0.502767 0.500000 1.213785
v -0.729904 0.500000 1.092378
v -0.928992 0.500000 0.928991
v -1.092379 0.500000 0.729903
v -1.213786 0.500000 0.502766
v -1.288548 0.500000 0.256307
v -1.313792 0.500000 -0.000001
v -1.288548 0.500000 -0.256309
v -1.213785 0.500000 -0.502768
v -1.092377 0.500000 -0.729905
v -0.928990 0.500000 -0.928992
v -0.729902 0.500000 -1.092379
v -0.502765 0.500000 -1.213786
v -0.256306 0.500000 -1.288548
vt 0.031250 0.750000
vt 0.031347 0.999985
vt 0.000097 0.999985
vt 0.000000 0.750000
vt 0.062500 0.750000
vt 0.062597 0.999985
vt 0.093750 0.750000
vt 0.093847 0.999985
vt 0.125000 0.750000
vt 0.125097 0.999985
vt 0.156250 0.750000
vt 0.156347 0.999985
vt 0.187500 0.750000
vt 0.187597 0.999985
vt 0.218750 0.750000
vt 0.218847 0.999985
vt 0.250000 0.750000
vt 0.250097 0.999985
vt 0.281250 0.750000
vt 0.281347 0.999985
vt 0.312500 0.750000
vt 0.312597 0.999985
vt 0.343750 0.750000
vt 0.343847 0.999985
vt 0.375000 0.750000
vt 0.375097 0.999985
vt 0.406250 0.750000
vt 0.406347 0.999985
vt 0.437500 0.750000
vt 0.437597 0.999985
vt 0.468750 0.750000
vt 0.468847 0.999985
vt 0.500000 0.750000
vt 0.500097 0.999985
vt 0.531250 0.750000
vt 0.531347 0.999985
vt 0.562500 0.750000
vt 0.562597 0.999985
vt 0.593750 0.750000
vt 0.593847 0.999985
vt 0.625000 0.750000
vt 0.625097 0.999985
vt 0.656250 0.750000
vt 0.656347 0.999985
vt 0.687500 0.750000
vt 0.687597 0.999985
vt 0.718750 0.750000
vt 0.718847 0.999985
vt 0.750000 0.750000
vt 0.750097 0.999985
vt 0.781250 0.750000
vt 0.781347 0.999985
vt 0.812500 0.750000
vt 0.812597 0.999985
vt 0.843750 0.750000
vt 0.843847 0.999985
vt 0.875000 0.750000
vt 0.875097 0.999985
vt 0.906250 0.750000
vt 0.906347 0.999985
vt 0.937500 0.750000
vt 0.937597 0.999985
vt 0.968750 0.750000
vt 0.968847 0.999985
vt 1.000000 0.750000
vt 1.000097 0.999985
vn -0.0960 -0.2038 -0.9743
vn -0.2842 -0.2038 -0.9369
vn -0.4615 -0.2038 -0.8634
vn -0.6211 -0.2038 -0.7568
vn -0.7568 -0.2038 -0.6211
vn -0.8634 -0.2038 -0.4615
vn -0.9369 -0.2038 -0.2842
vn -0.9743 -0.2038 -0.0960
vn -0.9743 -0.2038 0.0960
vn -0.9369 -0.2038 0.2842
vn -0.8634 -0.2038 0.4615
vn -0.7568 -0.2038 0.6211
vn -0.6211 -0.2038 0.7568
vn -0.4615 -0.2038 0.8634
vn -0.2842 -0.2038 0.9369
vn -0.0960 -0.2038 0.9743
vn 0.0960 -0.2038 0.9743
vn 0.2842 -0.2038 0.9369
vn 0.4615 -0.2038 0.8634
vn 0.6211 -0.2038 0.7568
vn 0.7568 -0.2038 0.6211
vn 0.8634 -0.2038 0.4615
vn 0.9369 -0.2038 0.2842
vn 0.9743 -0.2038 0.0960
vn 0.9743 -0.2038 -0.0960
vn 0.9369 -0.2038 -0.2842
vn 0.8634 -0.2038 -0.4615
vn 0.7568 -0.2038 -0.6211
vn 0.6211 -0.2038 -0.7568
vn 0.4615 -0.2038 -0.8634
vn 0.2842 -0.2038 -0.9369
vn 0.0960 -0.2038 -0.9743
usemtl Material
s off
f 32/1/1 64/2/1 33/3/1 1/4/1
f 31/5/2 63/6/2 64/2/2 32/1/2
f 30/7/3 62/8/3 63/6/3 31/5/3
f 29/9/4 61/10/4 62/8/4 30/7/4
f 28/11/5 60/12/5 61/10/5 29/9/5
f 27/13/6 59/14/6 60/12/6 28/11/6
f 26/15/7 58/16/7 59/14/7 27/13/7
f 25/17/8 57/18/8 58/16/8 26/15/8
f 24/19/9 56/20/9 57/18/9 25/17/9
f 23/21/10 55/22/10 56/20/10 24/19/10
f 22/23/11 54/24/11 55/22/11 23/21/11
f 21/25/12 53/26/12 54/24/12 22/23/12
f 20/27/13 52/28/13 53/26/13 21/25/13
f 19/29/14 51/30/14 52/28/14 20/27/14
f 18/31/15 50/32/15 51/30/15 19/29/15
f 17/33/16 49/34/16 50/32/16 18/31/16
f 16/35/17 48/36/17 49/34/17 17/33/17
f 15/37/18 47/38/18 48/36/18 16/35/18
f 14/39/19 46/40/19 47/38/19 15/37/19
f 13/41/20 45/42/20 46/40/20 14/39/20
f 12/43/21 44/44/21 45/42/21 13/41/21
f 11/45/22 43/46/22 44/44/22 12/43/22
f 10/47/23 42/48/23 43/46/23 11/45/23
f 9/49/24 41/50/24 42/48/24 10/47/24
f 8/51/25 40/52/25 41/50/25 9/49/25
f 7/53/26 39/54/26 40/52/26 8/51/26
f 6/55/27 38/56/27 39/54/27 7/53/27
f 5/57/28 37/58/28 38/56/28 6/55/28
f 4/59/29 36/60/29 37/58/29 5/57/29
f 3/61/30 35/62/30 36/60/30 4/59/30
f 2/63/31 34/64/31 35/62/31 3/61/31
f 1/65/32 33/66/32 34/64/32 2/63/32
